<svg xmlns="http://www.w3.org/2000/svg" width="238" height="56" viewBox="0 0 238 56" role="img" aria-labelledby="title desc">
  <title id="title">Diamond Water</title>
  <desc id="desc">Логотип компанії Діамантова вода</desc>
  <defs>
    <linearGradient id="diamondBlue" x1="7" y1="5" x2="49" y2="52" gradientUnits="userSpaceOnUse">
      <stop offset="0" stop-color="#B9F7FF"/>
      <stop offset=".48" stop-color="#1599DF"/>
      <stop offset="1" stop-color="#0B5CA8"/>
    </linearGradient>
    <linearGradient id="shine" x1="14" y1="8" x2="38" y2="35" gradientUnits="userSpaceOnUse">
      <stop offset="0" stop-color="#FFFFFF" stop-opacity=".9"/>
      <stop offset=".65" stop-color="#FFFFFF" stop-opacity=".08"/>
      <stop offset="1" stop-color="#FFFFFF" stop-opacity="0"/>
    </linearGradient>
    <filter id="softShadow" x="-20%" y="-20%" width="140%" height="150%" color-interpolation-filters="sRGB">
      <feDropShadow dx="0" dy="6" stdDeviation="5" flood-color="#0B5CA8" flood-opacity=".18"/>
    </filter>
  </defs>
  <g filter="url(#softShadow)">
    <path d="M28 2 54 21.5 28 54 2 21.5 28 2Z" fill="url(#diamondBlue)"/>
    <path d="M28 2 54 21.5H2L28 2Z" fill="url(#shine)"/>
    <path d="M2 21.5h52M28 2 17.8 21.5 28 54 38.2 21.5 28 2Z" fill="none" stroke="#fff" stroke-opacity=".68" stroke-width="2.4" stroke-linejoin="round"/>
  </g>
  <g fill="#092A4D">
    <text x="67" y="25" font-family="Inter, Arial, sans-serif" font-size="21" font-weight="900" letter-spacing=".4">DIAMOND</text>
    <text x="67" y="47" font-family="Inter, Arial, sans-serif" font-size="20" font-weight="700" letter-spacing="1.4">WATER</text>
  </g>
  <path d="M197 11c10 10 18 21 18 29 0 7-5 12-12 12s-12-5-12-12c0-8 4-18 6-29Z" fill="#1599DF" opacity=".16"/>
</svg>
